<?xml version="1.0" encoding="UTF-8" standalone="no"?>
<!-- Created with Inkscape (http://www.inkscape.org/) -->

<svg
   width="162.97701mm"
   height="74.799004mm"
   viewBox="0 0 162.977 74.799002"
   version="1.1"
   id="svg2855"
   sodipodi:docname="logo-path.svg"
   inkscape:version="1.2.1 (9c6d41e, 2022-07-14)"
   inkscape:export-filename="logo.png"
   inkscape:export-xdpi="500"
   inkscape:export-ydpi="500"
   xmlns:inkscape="http://www.inkscape.org/namespaces/inkscape"
   xmlns:sodipodi="http://sodipodi.sourceforge.net/DTD/sodipodi-0.dtd"
   xmlns="http://www.w3.org/2000/svg"
   xmlns:svg="http://www.w3.org/2000/svg">
  <sodipodi:namedview
     id="namedview2857"
     pagecolor="#6e6e6e"
     bordercolor="#000000"
     borderopacity="0.25"
     inkscape:showpageshadow="2"
     inkscape:pageopacity="0"
     inkscape:pagecheckerboard="true"
     inkscape:deskcolor="#d1d1d1"
     inkscape:document-units="mm"
     showgrid="false"
     inkscape:zoom="0.75324012"
     inkscape:cx="347.16685"
     inkscape:cy="47.129726"
     inkscape:window-width="1512"
     inkscape:window-height="859"
     inkscape:window-x="0"
     inkscape:window-y="38"
     inkscape:window-maximized="1"
     inkscape:current-layer="layer1" />
  <defs
     id="defs2852">
    <inkscape:path-effect
       effect="powerclip"
       id="path-effect11374"
       is_visible="true"
       lpeversion="1"
       inverse="true"
       flatten="false"
       hide_clip="false"
       message="Use fill-rule evenodd on &lt;b&gt;fill and stroke&lt;/b&gt; dialog if no flatten result after convert clip to paths." />
    <clipPath
       clipPathUnits="userSpaceOnUse"
       id="clipPath11370">
      <circle
         style="display:none;fill:#ffffff;fill-opacity:1;stroke:none;stroke-width:6.27303;stroke-dasharray:none;stroke-opacity:1"
         id="circle11372"
         cx="78.530663"
         cy="52.605171"
         r="10.157224"
         inkscape:label="path6205-2-2-2"
         d="M 88.687886,52.605171 A 10.157224,10.157224 0 0 1 78.530663,62.762395 10.157224,10.157224 0 0 1 68.373439,52.605171 10.157224,10.157224 0 0 1 78.530663,42.447948 10.157224,10.157224 0 0 1 88.687886,52.605171 Z" />
      <path
         id="lpe_path-effect11374"
         style="fill:#ffffff;fill-opacity:1;stroke:none;stroke-width:6.27303;stroke-dasharray:none;stroke-opacity:1"
         class="powerclip"
         d="M 64.968884,35.686669 H 95.079608 V 65.797393 H 64.968884 Z M 88.687886,52.605171 A 10.157224,10.157224 0 0 0 78.530663,42.447948 10.157224,10.157224 0 0 0 68.373439,52.605171 10.157224,10.157224 0 0 0 78.530663,62.762395 10.157224,10.157224 0 0 0 88.687886,52.605171 Z" />
    </clipPath>
  </defs>
  <g
     inkscape:label="Layer 1"
     inkscape:groupmode="layer"
     id="layer1"
     transform="translate(-30.885776,-11.84865)">
    <g
       aria-label="F   CAL"
       id="text425-1-5"
       style="font-size:50.8px;font-family:Kokonor;-inkscape-font-specification:Kokonor;fill:#ffffff;stroke:#ffffff;stroke-linecap:round;stroke-linejoin:round;stroke-miterlimit:3.3">
      <path
         d="m 42.307782,68.707031 h -4.572 V 32.435832 h 20.269199 v 4.0132 H 42.307782 v 12.8524 h 14.731999 v 4.013199 H 42.307782 Z"
         style="font-family:'Noto Sans';-inkscape-font-specification:'Noto Sans'"
         id="path11429" />
      <path
         d="m 119.26948,35.941032 q -5.842,0 -9.1948,3.9116 -3.3528,3.9116 -3.3528,10.7188 0,6.756399 3.0988,10.718799 3.1496,3.9116 9.398,3.9116 2.3876,0 4.5212,-0.4064 2.1336,-0.4064 4.1656,-1.016 v 3.9624 q -2.032,0.762 -4.2164,1.1176 -2.1336,0.3556 -5.1308,0.3556 -5.5372,0 -9.2456,-2.286 -3.7084,-2.286 -5.588,-6.5024 -1.8288,-4.2164 -1.8288,-9.905999 0,-5.4864 1.9812,-9.652 2.032,-4.2164 5.9436,-6.5532 3.9116,-2.3876 9.4996,-2.3876 5.7404,0 10.0076,2.1336 l -1.8288,3.8608 q -1.6764,-0.762 -3.7592,-1.3716 -2.032,-0.6096 -4.4704,-0.6096 z"
         style="font-family:'Noto Sans';-inkscape-font-specification:'Noto Sans'"
         id="path11431" />
      <path
         d="m 158.58868,68.707031 -4.3688,-11.2268 h -14.3764 l -4.318,11.2268 h -4.6228 l 14.1732,-36.423599 h 4.1148 l 14.1224,36.423599 z m -9.8044,-26.263599 q -0.1524,-0.4064 -0.508,-1.4732 -0.3556,-1.0668 -0.7112,-2.1844 -0.3048,-1.1684 -0.508,-1.778 -0.3556,1.5748 -0.8128,3.0988 -0.4572,1.4732 -0.762,2.3368 l -4.1148,10.972799 h 11.4808 z"
         style="font-family:'Noto Sans';-inkscape-font-specification:'Noto Sans'"
         id="path11433" />
      <path
         d="M 168.29148,68.707031 V 32.435832 h 4.572 v 32.207199 h 15.8496 v 4.064 z"
         style="font-family:'Noto Sans';-inkscape-font-specification:'Noto Sans'"
         id="path11435" />
    </g>
    <circle
       style="fill:none;fill-opacity:1;stroke:#ffffff;stroke-width:4.317;stroke-dasharray:none;stroke-opacity:1"
       id="path550-5-3-2-2"
       cx="79.987762"
       cy="50.556858"
       r="15.184669" />
    <path
       style="fill:#ffffff;fill-opacity:1;stroke-width:4.89343;stroke-linecap:round;stroke-linejoin:round;stroke-miterlimit:3.3;stroke-dasharray:none"
       id="path10604"
       inkscape:label="path10604"
       clip-path="url(#clipPath11370)"
       inkscape:path-effect="#path-effect11374"
       sodipodi:type="arc"
       sodipodi:cx="80.024246"
       sodipodi:cy="50.742031"
       sodipodi:rx="10.055362"
       sodipodi:ry="10.055362"
       d="M 90.079608,50.742031 A 10.055362,10.055362 0 0 1 80.024246,60.797393 10.055362,10.055362 0 0 1 69.968884,50.742031 10.055362,10.055362 0 0 1 80.024246,40.686669 10.055362,10.055362 0 0 1 90.079608,50.742031 Z" />
  </g>
</svg>
